<svg id="图层_1" data-name="图层 1" xmlns="http://www.w3.org/2000/svg" xmlns:xlink="http://www.w3.org/1999/xlink" viewBox="0 0 137 38"><defs><style>.cls-1{fill:#363d4e;}.cls-2{fill:#578dff;}.cls-3{fill:#868ca0;}.cls-4{fill:url(#未命名的渐变_6);}.cls-5{fill:url(#未命名的渐变_6-2);}</style><linearGradient id="未命名的渐变_6" x1="-0.2" y1="9.76" x2="32.89" y2="27.73" gradientUnits="userSpaceOnUse"><stop offset="0" stop-color="#0073f5"/><stop offset="1" stop-color="#0090f2"/></linearGradient><linearGradient id="未命名的渐变_6-2" x1="-1.32" y1="11.83" x2="31.76" y2="29.8" xlink:href="#未命名的渐变_6"/></defs><title>未标题-2</title><path class="cls-1" d="M69.08,23.55c-.59,0-1.18,0-1.77,0a.81.81,0,0,1-.78-.43c-.77-1.19-1.54-2.37-2.32-3.55-.3-.44-.36-.44-.66,0-.77,1.17-1.54,2.33-2.29,3.51a.86.86,0,0,1-.81.47c-1.23,0-2.46,0-3.69,0-.14,0-.32,0-.41-.12s.09-.27.17-.39c1.58-2.4,3.15-4.81,4.75-7.2a.63.63,0,0,0,0-.81q-2.37-3.57-4.71-7.16c-.1-.15-.3-.28-.2-.49s.34-.19.53-.19l3.49,0a.74.74,0,0,1,.69.42c.82,1.27,1.65,2.53,2.48,3.8.33.5.36.49.69,0C65.08,10,66,8.74,66.8,7.43a.54.54,0,0,1,.5-.27c1.2,0,2.39,0,3.59,0,.56,0,.63.2.31.69-1.56,2.39-3.12,4.78-4.7,7.17a.67.67,0,0,0,0,.86c1.51,2.26,3,4.54,4.5,6.81.14.22.44.45.3.7s-.49.12-.75.12C70.09,23.56,69.58,23.55,69.08,23.55Z"/><path class="cls-1" d="M44.45,7.15c2.18,0,4.37,0,6.56,0,.47,0,.67.13.65.63,0,.8,0,1.61,0,2.42,0,.48-.15.65-.64.64-1.58,0-3.16,0-4.74,0-.69,0-.69,0-.69.71V23.08c0,.76,0,.76-.75.76H42.56c-.62,0-.65,0-.65-.66V11.64c0-.82,0-.82-.84-.82-1.09,0-2.19,0-3.28,0-.38,0-.55-.14-.54-.53,0-.86,0-1.72,0-2.58,0-.44.14-.58.58-.58C40,7.16,42.24,7.15,44.45,7.15Z"/><path class="cls-2" d="M94.56,22.57V25.8c0,.89-.17,1-1.07,1.05-1.37,0-1.46-.08-1.46-1.46V16.62c0-1,.19-1.17,1.18-1.17h.31c.82,0,.9.06,1.11.92a4.16,4.16,0,0,1,1.15-.87,3,3,0,0,1,4.12,1.82,5.22,5.22,0,0,1-.69,5c-.94,1.31-3.46,1.6-4.39.44A2.93,2.93,0,0,0,94.56,22.57Zm0-3.2v.53a1.48,1.48,0,0,0,2.94.39,4.06,4.06,0,0,0,0-2,1.36,1.36,0,0,0-1.16-1.11A1.57,1.57,0,0,0,94.8,18,2.53,2.53,0,0,0,94.55,19.37Z"/><path class="cls-2" d="M75.65,17.82V13.18c0-.66.18-.85.84-.85H81c.67,0,.89.28.89,1.05s-.22,1-.88,1.06H78.87c-.55,0-.67.15-.69.7,0,.3,0,.61,0,.91,0,.47.21.68.65.69h1.92c.69,0,.87.2.88.87a4,4,0,0,1,0,.6.63.63,0,0,1-.71.57H79c-.69,0-.85.19-.86.88v.91a.54.54,0,0,0,.62.62h2.42c.74,0,.92.2.92,1s-.17,1.11-.91,1.12c-1.56,0-3.12,0-4.69,0-.71,0-.89-.19-.89-.91Z"/><path class="cls-2" d="M106.16,19.35c0-2.55,1.61-4.1,4.25-4.1a3.79,3.79,0,0,1,4.15,4.09,3.91,3.91,0,0,1-4.2,4.14A3.81,3.81,0,0,1,106.16,19.35Zm2.53.1a2.05,2.05,0,0,0,.49,1.65,1.66,1.66,0,0,0,2.7-.67,3.72,3.72,0,0,0,0-2,1.53,1.53,0,0,0-2.1-1.11C109,17.56,108.69,18.14,108.69,19.45Z"/><path class="cls-2" d="M126.72,20.1h-1.66a.65.65,0,0,0-.66.38c-.12.3.07.51.27.7a2.2,2.2,0,0,0,1.65.48,5.34,5.34,0,0,0,1.19-.17c.43-.1.78-.07.94.4A.89.89,0,0,1,128,23.1a6.31,6.31,0,0,1-4,.11,2.72,2.72,0,0,1-1-.6,4.09,4.09,0,0,1-1.19-4,3.88,3.88,0,0,1,5.29-3.16,3.5,3.5,0,0,1,2.13,3.27,4,4,0,0,1,0,.6.73.73,0,0,1-.79.74c-.56,0-1.11,0-1.67,0Zm-1.17-1.54h0a3.49,3.49,0,0,0,.56,0c.65-.08.86-.58.46-1.11a1.23,1.23,0,0,0-1.54-.32c-.35.22-.75.5-.62,1s.55.47.94.47Z"/><path class="cls-2" d="M84.68,15.45c.73-.19,1.16.25,1.45,1,.19.48.46.94.68,1.41.14.28.25.27.39,0,.32-.62.66-1.24,1-1.87a.84.84,0,0,1,.85-.51c.22,0,.44,0,.66,0s.62,0,.77.35a.85.85,0,0,1-.14.9c-.46.66-.89,1.34-1.37,2a.86.86,0,0,0,0,1.1c.49.72.94,1.47,1.41,2.21.17.27.35.55.17.89s-.51.37-.85.42a1.63,1.63,0,0,1-2-1.11A12.51,12.51,0,0,0,87.06,21c-.13-.27-.25-.31-.4,0l-.84,1.61a1.91,1.91,0,0,1-2.34.58.66.66,0,0,1-.14-1c.48-.73,1-1.46,1.46-2.18a.94.94,0,0,0,0-1.2c-.44-.67-.86-1.37-1.28-2.05-.16-.27-.38-.53-.2-.88a.84.84,0,0,1,.91-.4Z"/><path class="cls-2" d="M101.53,16.74V12.91c0-1,.21-1.19,1.17-1.19,1.32,0,1.35,0,1.35,1.37v7.26c0,.83.08.94.84,1.2a1.13,1.13,0,0,1,.78,1.16c-.06.45-.35.67-1,.71a4.76,4.76,0,0,1-1.41,0,2.13,2.13,0,0,1-1.64-1.81,20.47,20.47,0,0,1-.09-2.47Z"/><path class="cls-2" d="M118.56,16.51a2,2,0,0,1,1.79-1.17c.54,0,.75.21.77.76a5,5,0,0,1,0,.55c0,.59-.21.84-.78.81-1.2-.06-1.81.73-1.84,2,0,1,0,1.95,0,2.92,0,.72-.24.95-1,1-1.41,0-1.55-.1-1.55-1.48V16.65c0-1,.21-1.2,1.21-1.2h.16C118.3,15.45,118.37,15.51,118.56,16.51Z"/><path class="cls-2" d="M133.05,16.43l.58-.63a1.71,1.71,0,0,1,1.4-.45.31.31,0,0,1,.19,0c.59.4.3,1,.32,1.52,0,.36-.24.52-.59.56-1.61.17-1.92.52-1.92,2.17,0,.87,0,1.75,0,2.62s-.27,1-1,1h-.36c-.93,0-1.13-.2-1.13-1.12v-5.8c0-.78.17-.94,1-.94h.35C132.76,15.45,132.77,15.46,133.05,16.43Z"/><path class="cls-3" d="M53.93,27.11c-.29,1-.54,1.84-.78,2.71a.55.55,0,0,1-.63.48c-.38,0-.49-.22-.56-.52-.3-1.13-.62-2.27-.91-3.41,0-.18-.23-.45.14-.51s.58-.09.68.31l.75,3c.29-1,.54-1.94.8-2.85.06-.22.1-.47.41-.51a.55.55,0,0,1,.7.47c.17.79.37,1.57.56,2.35,0,.12,0,.27.19.37.21-.84.42-1.66.64-2.48a2.34,2.34,0,0,1,.17-.53c.14-.26.41-.2.63-.16s.17.29.12.45c-.35,1.19-.72,2.38-1.06,3.58a.52.52,0,0,1-.59.41.5.5,0,0,1-.55-.45C54.42,29,54.19,28.1,53.93,27.11Z"/><path class="cls-3" d="M38.61,27.23c0,.84,0,1.69,0,2.54,0,.19,0,.44-.22.5s-.58,0-.58-.39V26.3c0-.21,0-.42.3-.45a.76.76,0,0,1,.81.28c.53.83,1.08,1.66,1.63,2.48.06.1.08.23.27.3,0-.86,0-1.69,0-2.52,0-.19-.05-.41.2-.52a.41.41,0,0,1,.6.37c0,1.23,0,2.46,0,3.68,0,.18,0,.34-.27.36s-.6,0-.81-.26c-.51-.81-1-1.61-1.56-2.42-.09-.13-.18-.26-.26-.4Z"/><path class="cls-3" d="M62.15,28.05A2.1,2.1,0,0,1,60,30.4a2.14,2.14,0,0,1-2.25-2.26A2.24,2.24,0,0,1,60,25.78,2.09,2.09,0,0,1,62.15,28.05Zm-.85,0a2.2,2.2,0,0,0-.22-.89A1.2,1.2,0,0,0,60,26.43a1.14,1.14,0,0,0-1.12.63,2.11,2.11,0,0,0,0,2.12,1.14,1.14,0,0,0,1.1.58,1.13,1.13,0,0,0,1-.69A2.78,2.78,0,0,0,61.3,28.06Z"/><path class="cls-3" d="M63.43,28.08c0-.55,0-1.11,0-1.66,0-.38.15-.57.52-.58a6.13,6.13,0,0,1,1.71.09,1.16,1.16,0,0,1,.9.86A1.05,1.05,0,0,1,66.13,28c-.21.16-.28.24-.07.49a4.5,4.5,0,0,1,.6,1.64c0,.15-.07.21-.2.21s-.53.09-.66-.22a8.46,8.46,0,0,1-.24-.82,1.29,1.29,0,0,0-.26-.54.78.78,0,0,0-.84-.2c-.29.08-.19.35-.2.56s0,.4,0,.6.06.63-.43.63-.39-.32-.39-.6C63.42,29.16,63.43,28.62,63.43,28.08Zm.83-1c0,.73,0,.79.54.79s.93-.3.94-.71-.4-.71-.94-.73S64.22,26.74,64.26,27.07Z"/><path class="cls-3" d="M68.82,27.73l1.05-1.27c.17-.2.32-.45.57-.55s.59-.19.76,0-.17.36-.3.51a12.64,12.64,0,0,1-.85.94.49.49,0,0,0-.06.77c.38.49.73,1,1.07,1.53.1.17.45.39.19.56a.68.68,0,0,1-.88-.14c-.12-.14-.21-.3-.32-.45-.21-.32-.42-.65-.65-1-.09-.12-.13-.37-.35-.28a.52.52,0,0,0-.32.43c0,.32,0,.64,0,1s0,.49-.4.5-.43-.18-.43-.48V26.29c0-.27.08-.45.4-.45s.44.16.43.47V27.7Z"/><path class="cls-3" d="M43.12,28c0-.57,0-1.14,0-1.71,0-.34.13-.5.48-.49.62,0,1.24,0,1.86,0,.2,0,.38,0,.39.29s-.16.34-.39.34-.74,0-1.11,0-.4.28-.39.56-.07.61.37.62l1,0c.22,0,.42.06.41.33s-.2.28-.4.28h-1c-.29,0-.45.1-.44.41a5,5,0,0,1,0,.55c0,.3.14.43.43.42h1.16c.23,0,.41.07.4.34s-.21.27-.4.27h-2c-.36,0-.46-.18-.46-.5C43.12,29.21,43.12,28.63,43.12,28Z"/><path class="cls-3" d="M48.52,25.84h1.36c.2,0,.42,0,.42.3s-.19.31-.4.33c-1,.07-1,.08-1,1.09,0,.75,0,1.51,0,2.26,0,.29-.08.48-.42.48s-.43-.18-.43-.48c0-.87,0-1.74,0-2.61s0-.73-.7-.74h-.31c-.2,0-.36-.07-.37-.31s.16-.32.37-.32Z"/><path class="cls-4" d="M17.45,3.23a16,16,0,0,1,16,16.12,15.94,15.94,0,0,1-16.11,16,16.09,16.09,0,1,1,.07-32.17Zm.63,4.49a4.83,4.83,0,0,0-2.3,0A11.31,11.31,0,0,0,7.31,14.4a11.33,11.33,0,0,0,.35,10.67,11.06,11.06,0,0,0,11,6,11.39,11.39,0,0,0,9.9-7.67c0-.09.09-.19,0-.28-.21.1-.28.32-.42.48a12.51,12.51,0,0,1-2,2,11.58,11.58,0,0,1-9.56,2A8.19,8.19,0,0,1,12,25.26,10,10,0,0,1,9.29,18a10.6,10.6,0,0,1,3.07-7.4A9.38,9.38,0,0,1,18.08,7.72Zm0,5.61h0c-1.43,0-2.86,0-4.29,0a.61.61,0,0,0-.67.47c-.14.41-.29.83-.44,1.23-.25.65-.22.71.5.71l2.47,0c.3,0,.51.09.38.46l-1,3c-.65,1.85-1.3,3.71-1.94,5.56-.08.23-.12.47.21.49.57.05,1.14.08,1.71.11a.41.41,0,0,0,.42-.23.51.51,0,0,1,.6-.27,3,3,0,0,0,2.73-1.07l.38-.32c.91-.7.91-.7,1.66.13l.06.08c1,1.08,1,1.08,2.2.21.32-.23.34-.42.1-.7-.4-.43-.78-.88-1.18-1.31s-.32-.49,0-.77c1-.73,1.89-1.5,2.83-2.26.1-.08.25-.16.18-.32s-.2-.11-.31-.13c-1.85-.19-1.85-.19-3.27,1l-.08.07c-.89.7-.88.7-1.63-.17-.41-.48-.79-1-1.57-.9-.3,0-.36-.18-.27-.44.19-.57.4-1.14.57-1.72a.58.58,0,0,1,.64-.44c.79,0,1.58,0,2.37,0a.69.69,0,0,0,.78-.55c.14-.43.31-.85.47-1.28s.15-.59-.4-.59Z"/><path class="cls-5" d="M16.15,23.56c-.25-.07-.16-.24-.11-.37.21-.65.44-1.3.66-2,.14-.4.26-.8.4-1.19s.26-.43.52-.11.66.76,1,1.13c.15.17.22.34,0,.52l-2.26,1.84Z"/></svg>